<svg width="1948" height="842" viewBox="0 0 1948 842" fill="none" xmlns="http://www.w3.org/2000/svg">
<mask id="path-1-outside-1" maskUnits="userSpaceOnUse" x="0" y="0" width="1948" height="842" fill="black">
<rect fill="white" width="1948" height="842"/>
<path d="M253.6 40.1435L59.003 776.428H180.435C199.072 776.428 213.341 765.64 223.242 744.064C233.288 722.487 242.17 678.757 249.887 612.873L257.094 616.341L243.116 823.818H2V802.435L192.01 86.9559H97.2235C81.4985 86.9559 70.0688 91.5793 62.9343 100.826C55.9454 109.688 50.5581 122.788 46.7725 140.126C43.1325 157.078 39.7836 189.057 36.726 236.062H28.4267L34.542 40.1435H253.6Z"/>
<path d="M334.627 2C340.742 2 345.911 7.77931 350.134 19.3379C354.502 30.5113 356.686 44.189 356.686 60.371C356.686 76.5531 354.502 90.4235 350.134 101.982C345.911 113.541 340.742 119.32 334.627 119.32C328.512 119.32 323.27 113.541 318.902 101.982C314.534 90.4235 312.35 76.5531 312.35 60.371C312.35 44.189 314.461 30.5113 318.684 19.3379C323.052 7.77931 328.366 2 334.627 2ZM352.754 278.829V704.186C352.754 737.321 353.628 759.475 355.375 770.648C357.268 781.436 359.962 789.527 363.456 794.921C367.096 800.315 373.648 803.012 383.112 803.012V823.818H285.923V803.012C295.678 803.012 302.231 800.508 305.579 795.499C308.928 790.491 311.549 782.207 313.442 770.648C315.48 759.09 316.5 736.936 316.5 704.186V500.177C316.5 442.769 315.844 405.589 314.534 388.636C313.515 376.307 311.913 367.83 309.729 363.207C307.545 358.198 304.56 355.694 300.775 355.694C296.698 355.694 291.747 358.583 285.923 364.363L282.866 343.557L343.145 278.829H352.754Z"/>
<path d="M466.542 390.948C489.984 316.202 512.334 278.829 533.592 278.829C544.512 278.829 553.903 286.149 561.765 300.79C569.628 315.046 575.889 338.741 580.548 371.876C583.751 394.993 585.353 430.44 585.353 478.215V704.186C585.353 737.706 586.372 760.438 588.411 772.382C590.012 782.014 592.56 789.527 596.055 794.921C599.695 800.315 606.32 803.012 615.929 803.012V823.818H516.993V803.012H521.143C530.461 803.012 536.94 799.352 540.58 792.032C544.366 784.326 546.987 773.153 548.443 758.512C549.025 752.732 549.317 734.624 549.317 704.186V487.462C549.317 439.301 546.914 404.433 542.109 382.857C537.45 360.895 529.515 349.914 518.303 349.914C500.977 349.914 483.723 374.958 466.542 425.046V704.186C466.542 740.018 467.343 762.172 468.944 770.648C470.983 781.822 473.749 790.105 477.244 795.499C480.884 800.508 488.164 803.012 499.084 803.012V823.818H400.148V803.012H404.516C414.708 803.012 421.551 796.27 425.045 782.785C428.686 768.915 430.506 742.715 430.506 704.186V507.69C430.506 444.117 429.923 405.396 428.758 391.526C427.739 377.655 426.065 368.216 423.735 363.207C421.551 358.198 418.566 355.694 414.781 355.694C410.704 355.694 405.826 358.583 400.148 364.363L396.872 343.557L457.151 278.829H466.542V390.948Z"/>
<path d="M909.462 561.437H794.801L774.708 685.115C769.757 715.552 767.282 738.284 767.282 753.31C767.282 765.254 769.393 775.85 773.616 785.097C777.984 793.958 787.302 799.738 801.571 802.435V823.818H708.313V802.435C720.69 796.655 728.698 789.142 732.338 779.895C739.763 761.401 747.99 723.836 757.017 667.199L861.195 22.2276H868.839L971.925 674.134C980.224 726.533 987.723 760.631 994.421 776.428C1001.26 791.839 1010.73 800.508 1022.81 802.435V823.818H905.968V802.435C917.761 800.893 925.697 795.692 929.774 786.83C933.996 777.969 936.107 767.181 936.107 754.466C936.107 737.514 933.195 710.736 927.371 674.134L909.462 561.437ZM903.347 518.67L853.114 201.964L801.571 518.67H903.347Z"/>
<path d="M1096.85 385.746C1116.22 314.468 1137.11 278.829 1159.53 278.829C1180.06 278.829 1197.97 302.139 1213.26 348.759C1228.55 394.993 1236.19 458.373 1236.19 538.898C1236.19 632.908 1224.4 708.617 1200.81 766.025C1180.57 815.342 1158 840 1133.11 840C1121.46 840 1109.59 834.413 1097.51 823.24C1085.57 812.067 1073.34 795.307 1060.81 772.96V224.503C1060.81 164.399 1060.23 127.411 1059.07 113.541C1058.05 99.6703 1056.37 90.2308 1054.04 85.2221C1051.71 80.2133 1048.8 77.709 1045.31 77.709C1041.23 77.709 1036.14 80.7913 1030.02 86.9559L1026.96 66.7283L1087.02 2H1096.85V385.746ZM1096.85 422.734V739.44C1104.28 758.704 1111.92 773.345 1119.78 783.363C1127.79 792.995 1135.95 797.811 1144.24 797.811C1157.49 797.811 1169.8 778.547 1181.15 740.018C1192.66 701.489 1198.41 645.43 1198.41 571.84C1198.41 504.029 1192.66 452.016 1181.15 415.799C1169.8 379.196 1156.84 360.895 1142.28 360.895C1134.56 360.895 1126.85 366.097 1119.13 376.499C1113.3 384.205 1105.88 399.617 1096.85 422.734Z"/>
<path d="M1316.56 2C1322.68 2 1327.85 7.77931 1332.07 19.3379C1336.44 30.5113 1338.62 44.189 1338.62 60.371C1338.62 76.5531 1336.44 90.4235 1332.07 101.982C1327.85 113.541 1322.68 119.32 1316.56 119.32C1310.45 119.32 1305.21 113.541 1300.84 101.982C1296.47 90.4235 1294.29 76.5531 1294.29 60.371C1294.29 44.189 1296.4 30.5113 1300.62 19.3379C1304.99 7.77931 1310.3 2 1316.56 2ZM1334.69 278.829V704.186C1334.69 737.321 1335.57 759.475 1337.31 770.648C1339.21 781.436 1341.9 789.527 1345.39 794.921C1349.03 800.315 1355.59 803.012 1365.05 803.012V823.818H1267.86V803.012C1277.62 803.012 1284.17 800.508 1287.52 795.499C1290.87 790.491 1293.49 782.207 1295.38 770.648C1297.42 759.09 1298.44 736.936 1298.44 704.186V500.177C1298.44 442.769 1297.78 405.589 1296.47 388.636C1295.45 376.307 1293.85 367.83 1291.67 363.207C1289.48 358.198 1286.5 355.694 1282.71 355.694C1278.64 355.694 1273.68 358.583 1267.86 364.363L1264.8 343.557L1325.08 278.829H1334.69Z"/>
<path d="M1531.47 764.291C1521.72 791.261 1512.18 810.718 1502.86 822.662C1493.54 834.221 1483.5 840 1472.72 840C1450.88 840 1431.81 815.92 1415.5 767.759C1399.19 719.212 1391.04 656.989 1391.04 581.087C1391.04 505.185 1400.07 435.834 1418.12 373.032C1436.18 309.845 1459.4 278.251 1487.79 278.251C1505.41 278.251 1519.97 293.085 1531.47 322.752V225.081C1531.47 164.591 1530.89 127.411 1529.72 113.541C1528.71 99.6703 1527.03 90.2308 1524.7 85.2221C1522.37 80.2133 1519.46 77.709 1515.97 77.709C1512.18 77.709 1507.16 80.7913 1500.9 86.9559L1498.06 66.7283L1557.68 2H1567.51V614.029C1567.51 676.06 1568.02 714.011 1569.04 727.881C1570.2 741.367 1571.95 750.806 1574.28 756.2C1576.75 761.594 1579.59 764.291 1582.8 764.291C1586.73 764.291 1591.97 761.016 1598.52 754.466L1600.92 774.694L1541.52 840H1531.47V764.291ZM1531.47 723.836V451.052C1530.6 424.853 1527.98 400.965 1523.61 379.389C1519.24 357.813 1513.42 341.631 1506.14 330.843C1499 319.669 1492.01 314.083 1485.17 314.083C1472.36 314.083 1460.93 329.302 1450.88 359.739C1437.63 399.809 1431.01 458.373 1431.01 535.43C1431.01 613.258 1437.41 672.978 1450.23 714.589C1463.04 755.815 1477.31 776.428 1493.03 776.428C1506.28 776.428 1519.1 758.897 1531.47 723.836Z"/>
<path d="M1664.7 2C1670.81 2 1675.98 7.77931 1680.2 19.3379C1684.57 30.5113 1686.76 44.189 1686.76 60.371C1686.76 76.5531 1684.57 90.4235 1680.2 101.982C1675.98 113.541 1670.81 119.32 1664.7 119.32C1658.58 119.32 1653.34 113.541 1648.97 101.982C1644.6 90.4235 1642.42 76.5531 1642.42 60.371C1642.42 44.189 1644.53 30.5113 1648.75 19.3379C1653.12 7.77931 1658.44 2 1664.7 2ZM1682.83 278.829V704.186C1682.83 737.321 1683.7 759.475 1685.45 770.648C1687.34 781.436 1690.03 789.527 1693.53 794.921C1697.17 800.315 1703.72 803.012 1713.18 803.012V823.818H1615.99V803.012C1625.75 803.012 1632.3 800.508 1635.65 795.499C1639 790.491 1641.62 782.207 1643.51 770.648C1645.55 759.09 1646.57 736.936 1646.57 704.186V500.177C1646.57 442.769 1645.92 405.589 1644.6 388.636C1643.59 376.307 1641.98 367.83 1639.8 363.207C1637.62 358.198 1634.63 355.694 1630.85 355.694C1626.77 355.694 1621.82 358.583 1615.99 364.363L1612.94 343.557L1673.22 278.829H1682.83Z"/>
<path d="M1796.61 390.948C1820.05 316.202 1842.4 278.829 1863.66 278.829C1874.58 278.829 1883.97 286.149 1891.84 300.79C1899.7 315.046 1905.96 338.741 1910.62 371.876C1913.82 394.993 1915.42 430.44 1915.42 478.215V704.186C1915.42 737.706 1916.44 760.438 1918.48 772.382C1920.08 782.014 1922.63 789.527 1926.13 794.921C1929.77 800.315 1936.39 803.012 1946 803.012V823.818H1847.06V803.012H1851.21C1860.53 803.012 1867.01 799.352 1870.65 792.032C1874.44 784.326 1877.06 773.153 1878.51 758.512C1879.1 752.732 1879.39 734.624 1879.39 704.186V487.462C1879.39 439.301 1876.98 404.433 1872.18 382.857C1867.52 360.895 1859.59 349.914 1848.37 349.914C1831.05 349.914 1813.79 374.958 1796.61 425.046V704.186C1796.61 740.018 1797.41 762.172 1799.02 770.648C1801.05 781.822 1803.82 790.105 1807.31 795.499C1810.95 800.508 1818.23 803.012 1829.15 803.012V823.818H1730.22V803.012H1734.59C1744.78 803.012 1751.62 796.27 1755.12 782.785C1758.76 768.915 1760.58 742.715 1760.58 704.186V507.69C1760.58 444.117 1759.99 405.396 1758.83 391.526C1757.81 377.655 1756.14 368.216 1753.81 363.207C1751.62 358.198 1748.64 355.694 1744.85 355.694C1740.77 355.694 1735.9 358.583 1730.22 364.363L1726.94 343.557L1787.22 278.829H1796.61V390.948Z"/>
</mask>
<path d="M253.6 40.1435L59.003 776.428H180.435C199.072 776.428 213.341 765.64 223.242 744.064C233.288 722.487 242.17 678.757 249.887 612.873L257.094 616.341L243.116 823.818H2V802.435L192.01 86.9559H97.2235C81.4985 86.9559 70.0688 91.5793 62.9343 100.826C55.9454 109.688 50.5581 122.788 46.7725 140.126C43.1325 157.078 39.7836 189.057 36.726 236.062H28.4267L34.542 40.1435H253.6Z" stroke="white" stroke-width="4" mask="url(#path-1-outside-1)"/>
<path d="M334.627 2C340.742 2 345.911 7.77931 350.134 19.3379C354.502 30.5113 356.686 44.189 356.686 60.371C356.686 76.5531 354.502 90.4235 350.134 101.982C345.911 113.541 340.742 119.32 334.627 119.32C328.512 119.32 323.27 113.541 318.902 101.982C314.534 90.4235 312.35 76.5531 312.35 60.371C312.35 44.189 314.461 30.5113 318.684 19.3379C323.052 7.77931 328.366 2 334.627 2ZM352.754 278.829V704.186C352.754 737.321 353.628 759.475 355.375 770.648C357.268 781.436 359.962 789.527 363.456 794.921C367.096 800.315 373.648 803.012 383.112 803.012V823.818H285.923V803.012C295.678 803.012 302.231 800.508 305.579 795.499C308.928 790.491 311.549 782.207 313.442 770.648C315.48 759.09 316.5 736.936 316.5 704.186V500.177C316.5 442.769 315.844 405.589 314.534 388.636C313.515 376.307 311.913 367.83 309.729 363.207C307.545 358.198 304.56 355.694 300.775 355.694C296.698 355.694 291.747 358.583 285.923 364.363L282.866 343.557L343.145 278.829H352.754Z" stroke="white" stroke-width="4" mask="url(#path-1-outside-1)"/>
<path d="M466.542 390.948C489.984 316.202 512.334 278.829 533.592 278.829C544.512 278.829 553.903 286.149 561.765 300.79C569.628 315.046 575.889 338.741 580.548 371.876C583.751 394.993 585.353 430.44 585.353 478.215V704.186C585.353 737.706 586.372 760.438 588.411 772.382C590.012 782.014 592.56 789.527 596.055 794.921C599.695 800.315 606.32 803.012 615.929 803.012V823.818H516.993V803.012H521.143C530.461 803.012 536.94 799.352 540.58 792.032C544.366 784.326 546.987 773.153 548.443 758.512C549.025 752.732 549.317 734.624 549.317 704.186V487.462C549.317 439.301 546.914 404.433 542.109 382.857C537.45 360.895 529.515 349.914 518.303 349.914C500.977 349.914 483.723 374.958 466.542 425.046V704.186C466.542 740.018 467.343 762.172 468.944 770.648C470.983 781.822 473.749 790.105 477.244 795.499C480.884 800.508 488.164 803.012 499.084 803.012V823.818H400.148V803.012H404.516C414.708 803.012 421.551 796.27 425.045 782.785C428.686 768.915 430.506 742.715 430.506 704.186V507.69C430.506 444.117 429.923 405.396 428.758 391.526C427.739 377.655 426.065 368.216 423.735 363.207C421.551 358.198 418.566 355.694 414.781 355.694C410.704 355.694 405.826 358.583 400.148 364.363L396.872 343.557L457.151 278.829H466.542V390.948Z" stroke="white" stroke-width="4" mask="url(#path-1-outside-1)"/>
<path d="M909.462 561.437H794.801L774.708 685.115C769.757 715.552 767.282 738.284 767.282 753.31C767.282 765.254 769.393 775.85 773.616 785.097C777.984 793.958 787.302 799.738 801.571 802.435V823.818H708.313V802.435C720.69 796.655 728.698 789.142 732.338 779.895C739.763 761.401 747.99 723.836 757.017 667.199L861.195 22.2276H868.839L971.925 674.134C980.224 726.533 987.723 760.631 994.421 776.428C1001.26 791.839 1010.73 800.508 1022.81 802.435V823.818H905.968V802.435C917.761 800.893 925.697 795.692 929.774 786.83C933.996 777.969 936.107 767.181 936.107 754.466C936.107 737.514 933.195 710.736 927.371 674.134L909.462 561.437ZM903.347 518.67L853.114 201.964L801.571 518.67H903.347Z" stroke="white" stroke-width="4" mask="url(#path-1-outside-1)"/>
<path d="M1096.85 385.746C1116.22 314.468 1137.11 278.829 1159.53 278.829C1180.06 278.829 1197.97 302.139 1213.26 348.759C1228.55 394.993 1236.19 458.373 1236.19 538.898C1236.19 632.908 1224.4 708.617 1200.81 766.025C1180.57 815.342 1158 840 1133.11 840C1121.46 840 1109.59 834.413 1097.51 823.24C1085.57 812.067 1073.34 795.307 1060.81 772.96V224.503C1060.81 164.399 1060.23 127.411 1059.07 113.541C1058.05 99.6703 1056.37 90.2308 1054.04 85.2221C1051.71 80.2133 1048.8 77.709 1045.31 77.709C1041.23 77.709 1036.14 80.7913 1030.02 86.9559L1026.96 66.7283L1087.02 2H1096.85V385.746ZM1096.85 422.734V739.44C1104.28 758.704 1111.92 773.345 1119.78 783.363C1127.79 792.995 1135.95 797.811 1144.24 797.811C1157.49 797.811 1169.8 778.547 1181.15 740.018C1192.66 701.489 1198.41 645.43 1198.41 571.84C1198.41 504.029 1192.66 452.016 1181.15 415.799C1169.8 379.196 1156.84 360.895 1142.28 360.895C1134.56 360.895 1126.85 366.097 1119.13 376.499C1113.3 384.205 1105.88 399.617 1096.85 422.734Z" stroke="white" stroke-width="4" mask="url(#path-1-outside-1)"/>
<path d="M1316.56 2C1322.68 2 1327.85 7.77931 1332.07 19.3379C1336.44 30.5113 1338.62 44.189 1338.62 60.371C1338.62 76.5531 1336.44 90.4235 1332.07 101.982C1327.85 113.541 1322.68 119.32 1316.56 119.32C1310.45 119.32 1305.21 113.541 1300.84 101.982C1296.47 90.4235 1294.29 76.5531 1294.29 60.371C1294.29 44.189 1296.4 30.5113 1300.62 19.3379C1304.99 7.77931 1310.3 2 1316.56 2ZM1334.69 278.829V704.186C1334.69 737.321 1335.57 759.475 1337.31 770.648C1339.21 781.436 1341.9 789.527 1345.39 794.921C1349.03 800.315 1355.59 803.012 1365.05 803.012V823.818H1267.86V803.012C1277.62 803.012 1284.17 800.508 1287.52 795.499C1290.87 790.491 1293.49 782.207 1295.38 770.648C1297.42 759.09 1298.44 736.936 1298.44 704.186V500.177C1298.44 442.769 1297.78 405.589 1296.47 388.636C1295.45 376.307 1293.85 367.83 1291.67 363.207C1289.48 358.198 1286.5 355.694 1282.71 355.694C1278.64 355.694 1273.68 358.583 1267.86 364.363L1264.8 343.557L1325.08 278.829H1334.69Z" stroke="white" stroke-width="4" mask="url(#path-1-outside-1)"/>
<path d="M1531.47 764.291C1521.72 791.261 1512.18 810.718 1502.86 822.662C1493.54 834.221 1483.5 840 1472.72 840C1450.88 840 1431.81 815.92 1415.5 767.759C1399.19 719.212 1391.04 656.989 1391.04 581.087C1391.04 505.185 1400.07 435.834 1418.12 373.032C1436.18 309.845 1459.4 278.251 1487.79 278.251C1505.41 278.251 1519.97 293.085 1531.47 322.752V225.081C1531.47 164.591 1530.89 127.411 1529.72 113.541C1528.71 99.6703 1527.03 90.2308 1524.7 85.2221C1522.37 80.2133 1519.46 77.709 1515.97 77.709C1512.18 77.709 1507.16 80.7913 1500.9 86.9559L1498.06 66.7283L1557.68 2H1567.51V614.029C1567.51 676.06 1568.02 714.011 1569.04 727.881C1570.2 741.367 1571.95 750.806 1574.28 756.2C1576.75 761.594 1579.59 764.291 1582.8 764.291C1586.73 764.291 1591.97 761.016 1598.52 754.466L1600.92 774.694L1541.52 840H1531.47V764.291ZM1531.47 723.836V451.052C1530.6 424.853 1527.98 400.965 1523.61 379.389C1519.24 357.813 1513.42 341.631 1506.14 330.843C1499 319.669 1492.01 314.083 1485.17 314.083C1472.36 314.083 1460.93 329.302 1450.88 359.739C1437.63 399.809 1431.01 458.373 1431.01 535.43C1431.01 613.258 1437.41 672.978 1450.23 714.589C1463.04 755.815 1477.31 776.428 1493.03 776.428C1506.28 776.428 1519.1 758.897 1531.47 723.836Z" stroke="white" stroke-width="4" mask="url(#path-1-outside-1)"/>
<path d="M1664.7 2C1670.81 2 1675.98 7.77931 1680.2 19.3379C1684.57 30.5113 1686.76 44.189 1686.76 60.371C1686.76 76.5531 1684.57 90.4235 1680.2 101.982C1675.98 113.541 1670.81 119.32 1664.7 119.32C1658.58 119.32 1653.34 113.541 1648.97 101.982C1644.6 90.4235 1642.42 76.5531 1642.42 60.371C1642.42 44.189 1644.53 30.5113 1648.75 19.3379C1653.12 7.77931 1658.44 2 1664.7 2ZM1682.83 278.829V704.186C1682.83 737.321 1683.7 759.475 1685.45 770.648C1687.34 781.436 1690.03 789.527 1693.53 794.921C1697.17 800.315 1703.72 803.012 1713.18 803.012V823.818H1615.99V803.012C1625.75 803.012 1632.3 800.508 1635.65 795.499C1639 790.491 1641.62 782.207 1643.51 770.648C1645.55 759.09 1646.57 736.936 1646.57 704.186V500.177C1646.57 442.769 1645.92 405.589 1644.6 388.636C1643.59 376.307 1641.98 367.83 1639.8 363.207C1637.62 358.198 1634.63 355.694 1630.85 355.694C1626.77 355.694 1621.82 358.583 1615.99 364.363L1612.94 343.557L1673.22 278.829H1682.83Z" stroke="white" stroke-width="4" mask="url(#path-1-outside-1)"/>
<path d="M1796.61 390.948C1820.05 316.202 1842.4 278.829 1863.66 278.829C1874.58 278.829 1883.97 286.149 1891.84 300.79C1899.7 315.046 1905.96 338.741 1910.62 371.876C1913.82 394.993 1915.42 430.44 1915.42 478.215V704.186C1915.42 737.706 1916.44 760.438 1918.48 772.382C1920.08 782.014 1922.63 789.527 1926.13 794.921C1929.77 800.315 1936.39 803.012 1946 803.012V823.818H1847.06V803.012H1851.21C1860.53 803.012 1867.01 799.352 1870.65 792.032C1874.44 784.326 1877.06 773.153 1878.51 758.512C1879.1 752.732 1879.39 734.624 1879.39 704.186V487.462C1879.39 439.301 1876.98 404.433 1872.18 382.857C1867.52 360.895 1859.59 349.914 1848.37 349.914C1831.05 349.914 1813.79 374.958 1796.61 425.046V704.186C1796.61 740.018 1797.41 762.172 1799.02 770.648C1801.05 781.822 1803.82 790.105 1807.31 795.499C1810.95 800.508 1818.23 803.012 1829.15 803.012V823.818H1730.22V803.012H1734.59C1744.78 803.012 1751.62 796.27 1755.12 782.785C1758.76 768.915 1760.58 742.715 1760.58 704.186V507.69C1760.58 444.117 1759.99 405.396 1758.83 391.526C1757.81 377.655 1756.14 368.216 1753.81 363.207C1751.62 358.198 1748.64 355.694 1744.85 355.694C1740.77 355.694 1735.9 358.583 1730.22 364.363L1726.94 343.557L1787.22 278.829H1796.61V390.948Z" stroke="white" stroke-width="4" mask="url(#path-1-outside-1)"/>
</svg>
